<?xml version="1.0" encoding="UTF-8" standalone="no"?>
<!-- Created with Inkscape (http://www.inkscape.org/) -->

<svg
   width="60.959999mm"
   height="128.5mm"
   viewBox="0 0 60.960004 128.50002"
   version="1.1"
   id="svg8"
   inkscape:version="1.3.2 (091e20e, 2023-11-25, custom)"
   sodipodi:docname="L-Carrier.svg"
   xmlns:inkscape="http://www.inkscape.org/namespaces/inkscape"
   xmlns:sodipodi="http://sodipodi.sourceforge.net/DTD/sodipodi-0.dtd"
   xmlns="http://www.w3.org/2000/svg"
   xmlns:svg="http://www.w3.org/2000/svg"
   xmlns:rdf="http://www.w3.org/1999/02/22-rdf-syntax-ns#"
   xmlns:cc="http://creativecommons.org/ns#"
   xmlns:dc="http://purl.org/dc/elements/1.1/">
  <defs
     id="defs2">
    <inkscape:path-effect
       effect="bspline"
       id="path-effect9"
       is_visible="true"
       lpeversion="1.3"
       weight="33.333333"
       steps="2"
       helper_size="0"
       apply_no_weight="true"
       apply_with_weight="true"
       only_selected="false"
       uniform="false" />
    <inkscape:path-effect
       effect="bspline"
       id="path-effect7"
       is_visible="true"
       lpeversion="1.3"
       weight="33.333333"
       steps="2"
       helper_size="0"
       apply_no_weight="true"
       apply_with_weight="true"
       only_selected="false"
       uniform="false" />
    <inkscape:path-effect
       effect="bspline"
       id="path-effect5"
       is_visible="true"
       lpeversion="1.3"
       weight="33.333333"
       steps="2"
       helper_size="0"
       apply_no_weight="true"
       apply_with_weight="true"
       only_selected="false"
       uniform="false" />
    <inkscape:path-effect
       effect="bspline"
       id="path-effect20"
       is_visible="true"
       lpeversion="1.3"
       weight="33.333333"
       steps="2"
       helper_size="0"
       apply_no_weight="true"
       apply_with_weight="true"
       only_selected="false"
       uniform="false" />
    <inkscape:path-effect
       effect="bspline"
       id="path-effect18"
       is_visible="true"
       lpeversion="1.3"
       weight="33.333333"
       steps="2"
       helper_size="0"
       apply_no_weight="true"
       apply_with_weight="true"
       only_selected="false"
       uniform="false" />
    <inkscape:path-effect
       effect="bspline"
       id="path-effect16"
       is_visible="true"
       lpeversion="1.3"
       weight="33.333333"
       steps="2"
       helper_size="0"
       apply_no_weight="true"
       apply_with_weight="true"
       only_selected="false"
       uniform="false" />
    <inkscape:path-effect
       effect="bspline"
       id="path-effect14"
       is_visible="true"
       lpeversion="1.3"
       weight="33.333333"
       steps="2"
       helper_size="0"
       apply_no_weight="true"
       apply_with_weight="true"
       only_selected="false"
       uniform="false" />
    <inkscape:path-effect
       effect="bspline"
       id="path-effect13"
       is_visible="true"
       lpeversion="1.3"
       weight="33.333333"
       steps="2"
       helper_size="0"
       apply_no_weight="true"
       apply_with_weight="true"
       only_selected="false"
       uniform="false" />
    <inkscape:path-effect
       effect="bspline"
       id="path-effect12"
       is_visible="true"
       lpeversion="1.3"
       weight="33.333333"
       steps="2"
       helper_size="0"
       apply_no_weight="true"
       apply_with_weight="true"
       only_selected="false"
       uniform="false" />
    <inkscape:perspective
       sodipodi:type="inkscape:persp3d"
       inkscape:vp_x="0 : 64.25001 : 1"
       inkscape:vp_y="0 : 1000 : 0"
       inkscape:vp_z="162.06864 : 57.068461 : 1"
       inkscape:persp3d-origin="30.480002 : 42.83334 : 1"
       id="perspective7" />
    <inkscape:path-effect
       effect="spiro"
       id="path-effect2"
       is_visible="true"
       lpeversion="1" />
    <inkscape:path-effect
       effect="spiro"
       id="path-effect1"
       is_visible="true"
       lpeversion="1" />
    <inkscape:path-effect
       effect="spiro"
       id="path-effect3"
       is_visible="true"
       lpeversion="1" />
  </defs>
  <sodipodi:namedview
     id="base"
     pagecolor="#ffffff"
     bordercolor="#666666"
     borderopacity="1.0"
     inkscape:pageopacity="0.0"
     inkscape:pageshadow="2"
     inkscape:zoom="1.4"
     inkscape:cx="180.35714"
     inkscape:cy="328.92857"
     inkscape:document-units="mm"
     inkscape:current-layer="layer3"
     showgrid="false"
     units="mm"
     inkscape:snap-bbox="true"
     inkscape:snap-page="true"
     inkscape:bbox-nodes="false"
     inkscape:snap-bbox-edge-midpoints="false"
     inkscape:window-width="1366"
     inkscape:window-height="745"
     inkscape:window-x="-8"
     inkscape:window-y="-8"
     inkscape:window-maximized="1"
     inkscape:snap-bbox-midpoints="true"
     inkscape:snap-nodes="false"
     inkscape:showpageshadow="0"
     inkscape:pagecheckerboard="0"
     inkscape:deskcolor="#505050" />
  <metadata
     id="metadata5">
    <rdf:RDF>
      <cc:Work
         rdf:about="">
        <dc:format>image/svg+xml</dc:format>
        <dc:type
           rdf:resource="http://purl.org/dc/dcmitype/StillImage" />
      </cc:Work>
    </rdf:RDF>
  </metadata>
  <g
     inkscape:groupmode="layer"
     id="layer3"
     inkscape:label="background">
    <rect
       style="opacity:1;fill:#e6e6e6;fill-rule:evenodd;stroke-width:1.05273;paint-order:markers stroke fill"
       id="rect1"
       width="60.959999"
       height="128.5"
       x="0"
       y="0" />
    <text
       xml:space="preserve"
       style="font-style:italic;font-size:4.5861px;line-height:0;font-family:Calibri;-inkscape-font-specification:'Calibri Italic';text-align:center;text-anchor:middle;opacity:0.761438;fill:#000000;fill-rule:evenodd;stroke-width:0.363;stroke-dasharray:none;paint-order:markers stroke fill"
       x="7.8844509"
       y="110.78322"
       id="text2"><tspan
         sodipodi:role="line"
         id="tspan1"
         style="stroke-width:0.363" /></text>
  </g>
  <g
     inkscape:groupmode="layer"
     id="layer5"
     inkscape:label="texts"
     inkscape:highlight-color="#02f3e9">
    <path
       style="font-style:italic;font-size:5.64444px;line-height:0;font-family:Calibri;-inkscape-font-specification:'Calibri Italic';text-align:center;text-anchor:middle;fill-rule:evenodd;stroke-width:0.55;paint-order:markers stroke fill"
       d="m 19.168752,44.633776 q 0.0083,0.06063 0.0028,0.09922 -0.0028,0.03583 -0.03032,0.05512 -0.0248,0.01929 -0.07993,0.0248 -0.05512,0.0055 -0.148828,0.0055 -0.06063,0 -0.10473,-0.0055 -0.0441,-0.0028 -0.0689,-0.01102 -0.02205,-0.01102 -0.03307,-0.02756 -0.01103,-0.01654 -0.01378,-0.04134 L 18.55966,43.864831 h -1.485524 l -0.465777,0.859895 q -0.01378,0.02756 -0.03307,0.04685 -0.01654,0.01654 -0.04961,0.02756 -0.03032,0.01102 -0.08268,0.01378 -0.04961,0.0055 -0.124024,0.0055 -0.08268,0 -0.132291,-0.0083 -0.04961,-0.0055 -0.0689,-0.0248 -0.01929,-0.01929 -0.01102,-0.05512 0.0083,-0.03858 0.03858,-0.09922 l 1.857594,-3.312802 q 0.01929,-0.03032 0.04134,-0.04961 0.02205,-0.01929 0.05788,-0.03032 0.03583,-0.01102 0.09095,-0.01378 0.05512,-0.0055 0.135048,-0.0055 0.09095,0 0.146072,0.0055 0.05788,0.0028 0.09095,0.01378 0.03583,0.01102 0.04961,0.03307 0.01378,0.01929 0.01929,0.04961 z m -0.928797,-2.924195 h -0.0028 l -0.964626,1.777668 h 1.234721 z"
       id="text1"
       inkscape:label="A"
       aria-label="A" />
    <path
       style="font-style:italic;font-size:5.64444px;line-height:0;font-family:Calibri;-inkscape-font-specification:'Calibri Italic';text-align:center;text-anchor:middle;fill-rule:evenodd;stroke-width:0.55;paint-order:markers stroke fill"
       d="m 37.939691,41.976618 q 0,0.16812 -0.04685,0.319704 -0.0441,0.148828 -0.129536,0.275608 -0.08268,0.126779 -0.203949,0.223242 -0.118512,0.09646 -0.270096,0.159852 0.115755,0.02205 0.214974,0.07993 0.101975,0.05788 0.173633,0.146072 0.07166,0.08544 0.110243,0.203949 0.04134,0.118512 0.04134,0.261828 0,0.146071 -0.03859,0.294899 -0.03858,0.146072 -0.118511,0.28112 -0.07717,0.132292 -0.195682,0.248047 -0.115755,0.112999 -0.272851,0.198437 -0.157096,0.08544 -0.352777,0.132292 -0.192926,0.04685 -0.449241,0.04685 h -0.945333 q -0.09095,0 -0.137804,-0.0441 -0.0441,-0.04685 -0.01929,-0.148828 l 0.633897,-3.18051 q 0.01929,-0.107487 0.08819,-0.148828 0.0689,-0.0441 0.143316,-0.0441 h 0.766189 q 0.272851,0 0.457508,0.04685 0.184657,0.0441 0.305924,0.132292 0.124024,0.08819 0.184657,0.217729 0.06063,0.129536 0.06063,0.297657 z m -0.504362,0.08544 q 0,-0.09095 -0.03032,-0.162609 -0.03032,-0.07166 -0.09922,-0.121267 -0.06615,-0.05236 -0.170877,-0.07993 -0.101975,-0.03032 -0.270095,-0.03032 h -0.501601 l -0.228754,1.154795 h 0.537435 q 0.21773,0 0.358289,-0.07166 0.14056,-0.07166 0.228755,-0.181901 0.09095,-0.112999 0.132291,-0.248046 0.0441,-0.135048 0.0441,-0.259071 z m -0.107487,1.617815 q 0,-0.228754 -0.162608,-0.352777 -0.162608,-0.126779 -0.501605,-0.126779 h -0.609093 l -0.248047,1.256769 h 0.664214 q 0.225998,0 0.380339,-0.06339 0.157096,-0.06615 0.261827,-0.170877 0.10473,-0.107487 0.159852,-0.248047 0.05512,-0.140559 0.05512,-0.2949 z"
       id="text1-1"
       inkscape:label="B"
       aria-label="B" />
    <g
       id="g19"
       inkscape:label="audio-in"
       transform="translate(0,-3.7041668)">
      <path
         style="font-style:italic;font-size:4.93889px;line-height:0;font-family:Calibri;-inkscape-font-specification:'Calibri Italic';text-align:center;text-anchor:middle;display:inline;fill-rule:evenodd;stroke-width:0.55;paint-order:markers stroke fill"
         d="m 27.139548,59.451826 q -0.0024,0.01929 -0.01447,0.03376 -0.01206,0.01447 -0.03376,0.02412 -0.0217,0.0072 -0.05788,0.01206 -0.03376,0.0048 -0.08441,0.0048 -0.04823,0 -0.08199,-0.0048 -0.03135,-0.0048 -0.05064,-0.01206 -0.01688,-0.0096 -0.02411,-0.02412 -0.0048,-0.01447 0,-0.03376 l 0.07958,-0.407555 q -0.03859,0.08199 -0.12299,0.173633 -0.08199,0.08923 -0.195337,0.166398 -0.110932,0.07717 -0.24598,0.125402 -0.132636,0.04823 -0.270096,0.04823 -0.163986,0 -0.27733,-0.04582 -0.110932,-0.04341 -0.180868,-0.120578 -0.06752,-0.07958 -0.09887,-0.185691 -0.02894,-0.10852 -0.02894,-0.236333 0,-0.07958 0.0096,-0.161575 0.01206,-0.0844 0.02894,-0.16881 l 0.267684,-1.360124 q 0.0048,-0.01688 0.01688,-0.03135 0.01206,-0.01447 0.03617,-0.02412 0.02653,-0.0096 0.06511,-0.01206 0.041,-0.0048 0.09887,-0.0048 0.05788,0 0.09405,0.0048 0.03858,0.0024 0.05788,0.01206 0.0217,0.0096 0.02653,0.02412 0.0072,0.01447 0.0048,0.03135 l -0.265273,1.345655 q -0.01447,0.0627 -0.0217,0.130224 -0.0072,0.06752 -0.0072,0.13746 0,0.07235 0.01206,0.132636 0.01447,0.05788 0.04582,0.101286 0.03376,0.04341 0.08441,0.06752 0.05305,0.02411 0.127813,0.02411 0.127813,0 0.260449,-0.07235 0.135048,-0.07476 0.250803,-0.204983 0.115755,-0.130225 0.204983,-0.308681 0.09164,-0.180867 0.135048,-0.393085 l 0.190514,-0.959804 q 0.0024,-0.01688 0.01447,-0.03135 0.01447,-0.01447 0.03858,-0.02412 0.02653,-0.0096 0.06511,-0.01206 0.041,-0.0048 0.09887,-0.0048 0.05788,0 0.09405,0.0048 0.03858,0.0024 0.05788,0.01206 0.0217,0.0096 0.02653,0.02412 0.0072,0.01447 0.0048,0.03135 z"
         id="path9" />
      <path
         style="font-style:italic;font-size:4.93889px;line-height:0;font-family:Calibri;-inkscape-font-specification:'Calibri Italic';text-align:center;text-anchor:middle;display:inline;fill-rule:evenodd;stroke-width:0.55;paint-order:markers stroke fill"
         d="m 38.454622,57.761323 q 0,0.0844 -0.0096,0.166398 -0.0096,0.08199 -0.02653,0.168809 l -0.272507,1.355301 q -0.0048,0.01929 -0.01688,0.03376 -0.0096,0.01206 -0.03617,0.0217 -0.02412,0.0096 -0.0627,0.01447 -0.03858,0.0048 -0.09887,0.0048 -0.05788,0 -0.09646,-0.0048 -0.03617,-0.0048 -0.05788,-0.01447 -0.01929,-0.0096 -0.02653,-0.0217 -0.0048,-0.01447 -0.0024,-0.03376 L 38.015779,58.111 q 0.01688,-0.07476 0.0217,-0.144694 0.0072,-0.06994 0.0072,-0.12299 0,-0.147106 -0.0627,-0.236334 -0.0627,-0.09164 -0.209806,-0.09164 -0.127814,0 -0.262861,0.07476 -0.132636,0.07235 -0.248392,0.202572 -0.113343,0.127813 -0.204983,0.306269 -0.08923,0.176044 -0.130225,0.383439 l -0.192925,0.96945 q -0.0048,0.01929 -0.01688,0.03376 -0.01206,0.01206 -0.03617,0.0217 -0.02412,0.0096 -0.06511,0.01447 -0.03858,0.0048 -0.09646,0.0048 -0.06029,0 -0.09888,-0.0048 -0.03617,-0.0048 -0.05788,-0.01447 -0.01929,-0.0096 -0.02653,-0.0217 -0.0048,-0.01447 0,-0.03376 l 0.436494,-2.172822 q 0.0024,-0.01688 0.01206,-0.03135 0.01206,-0.01447 0.03376,-0.02412 0.02412,-0.0096 0.05788,-0.01206 0.03617,-0.0048 0.0844,-0.0048 0.05064,0 0.08199,0.0048 0.03376,0.0024 0.05064,0.01206 0.01929,0.0096 0.02412,0.02412 0.0048,0.01447 0.0024,0.03135 l -0.08199,0.41479 q 0.03617,-0.08199 0.118166,-0.173633 0.08199,-0.09164 0.195337,-0.16881 0.113344,-0.07717 0.248392,-0.127813 0.137459,-0.05064 0.284565,-0.05064 0.161575,0 0.270095,0.05064 0.108521,0.04823 0.176045,0.130225 0.06752,0.07958 0.09646,0.18569 0.02894,0.106109 0.02894,0.221865 z"
         id="path19" />
      <path
         style="font-style:italic;font-size:4.93889px;line-height:0;font-family:Calibri;-inkscape-font-specification:'Calibri Italic';text-align:center;text-anchor:middle;display:inline;fill-rule:evenodd;stroke-width:0.55;paint-order:markers stroke fill"
         d="m 35.599326,59.451831 q -0.0048,0.01929 -0.01688,0.03376 -0.01206,0.01206 -0.03617,0.0217 -0.02411,0.0096 -0.06511,0.01447 -0.03858,0.0048 -0.09646,0.0048 -0.06029,0 -0.09887,-0.0048 -0.03617,-0.0048 -0.05788,-0.01447 -0.01929,-0.0096 -0.02653,-0.0217 -0.0048,-0.01447 0,-0.03376 l 0.431671,-2.17041 q 0.0024,-0.01688 0.01447,-0.03135 0.01206,-0.01447 0.03617,-0.02412 0.02412,-0.0096 0.0627,-0.01447 0.041,-0.0048 0.101286,-0.0048 0.05788,0 0.09405,0.0048 0.03859,0.0048 0.05788,0.01447 0.0217,0.0096 0.02653,0.02412 0.0072,0.01447 0.0048,0.03135 z"
         id="path18" />
      <path
         style="font-style:italic;font-size:4.93889px;line-height:0;font-family:Calibri;-inkscape-font-specification:'Calibri Italic';text-align:center;text-anchor:middle;display:inline;fill-rule:evenodd;stroke-width:0.55;paint-order:markers stroke fill"
         d="m 36.223922,56.550716 q -0.01206,0.06752 -0.03376,0.113343 -0.01929,0.04582 -0.05306,0.07476 -0.03376,0.02653 -0.0844,0.03858 -0.05064,0.01206 -0.12299,0.01206 -0.06994,0 -0.115756,-0.01206 -0.04582,-0.01206 -0.06752,-0.03858 -0.0217,-0.02894 -0.02412,-0.07476 -0.0024,-0.04582 0.0096,-0.113343 0.01447,-0.06752 0.03617,-0.110932 0.0217,-0.04582 0.05305,-0.07476 0.03376,-0.03135 0.0844,-0.041 0.05064,-0.01206 0.12299,-0.01206 0.06994,0 0.113344,0.01206 0.04582,0.0096 0.06752,0.041 0.02412,0.02894 0.02653,0.07476 0.0024,0.04341 -0.01206,0.110932 z"
         id="path17" />
      <path
         style="font-style:italic;font-size:4.93889px;line-height:0;font-family:Calibri;-inkscape-font-specification:'Calibri Italic';text-align:center;text-anchor:middle;display:inline;fill-rule:evenodd;stroke-width:0.55;paint-order:markers stroke fill"
         d="m 33.749654,58.000063 q 0,0.178456 -0.03376,0.364146 -0.03376,0.185691 -0.103697,0.359324 -0.06752,0.171221 -0.173633,0.32315 -0.106109,0.151929 -0.250803,0.265272 -0.142283,0.113344 -0.325562,0.180868 -0.180867,0.06511 -0.405143,0.06511 -0.23151,0 -0.397909,-0.05547 -0.163986,-0.05547 -0.270095,-0.161575 -0.106109,-0.106109 -0.156752,-0.260449 -0.05064,-0.15434 -0.05064,-0.349677 0,-0.178456 0.03135,-0.364147 0.03376,-0.185691 0.103698,-0.356912 0.06994,-0.171221 0.173633,-0.32315 0.106109,-0.15434 0.248391,-0.267684 0.144694,-0.113344 0.325562,-0.178456 0.183279,-0.06752 0.407555,-0.06752 0.23151,0 0.395497,0.05788 0.166398,0.05547 0.272507,0.161575 0.10852,0.106109 0.159163,0.260449 0.05064,0.15434 0.05064,0.347266 z m -0.419613,0.02412 q 0,-0.120578 -0.02653,-0.217041 -0.02412,-0.09646 -0.0844,-0.161575 -0.05788,-0.06752 -0.15434,-0.103697 -0.09405,-0.03617 -0.229099,-0.03617 -0.144694,0 -0.262861,0.05306 -0.118167,0.05064 -0.212218,0.139871 -0.09164,0.08682 -0.161575,0.204983 -0.06752,0.118167 -0.113343,0.253215 -0.04341,0.132636 -0.06511,0.274918 -0.0217,0.139871 -0.0217,0.274919 0,0.120578 0.02653,0.217041 0.02653,0.09646 0.08441,0.163987 0.06029,0.06752 0.154341,0.103697 0.09405,0.03617 0.229099,0.03617 0.147105,0 0.26286,-0.05064 0.118167,-0.05306 0.209807,-0.142283 0.09405,-0.08923 0.161575,-0.207395 0.06994,-0.118166 0.113343,-0.253214 0.04582,-0.135048 0.06752,-0.274919 0.0217,-0.139871 0.0217,-0.274919 z"
         id="path16" />
      <path
         style="font-style:italic;font-size:4.93889px;line-height:0;font-family:Calibri;-inkscape-font-specification:'Calibri Italic';text-align:center;text-anchor:middle;display:inline;fill-rule:evenodd;stroke-width:0.55;paint-order:markers stroke fill"
         d="m 30.814776,59.451826 q -0.0048,0.01929 -0.01688,0.03376 -0.01206,0.01206 -0.03617,0.0217 -0.02412,0.0096 -0.06511,0.01447 -0.03858,0.0048 -0.09646,0.0048 -0.06029,0 -0.09887,-0.0048 -0.03617,-0.0048 -0.05788,-0.01447 -0.01929,-0.0096 -0.02653,-0.0217 -0.0048,-0.01447 0,-0.03376 l 0.43167,-2.17041 q 0.0024,-0.01688 0.01447,-0.03135 0.01206,-0.01447 0.03617,-0.02412 0.02412,-0.0096 0.0627,-0.01447 0.041,-0.0048 0.101286,-0.0048 0.05788,0 0.09405,0.0048 0.03858,0.0048 0.05788,0.01447 0.0217,0.0096 0.02653,0.02412 0.0072,0.01447 0.0048,0.03135 z"
         id="path15" />
      <path
         style="font-style:italic;font-size:4.93889px;line-height:0;font-family:Calibri;-inkscape-font-specification:'Calibri Italic';text-align:center;text-anchor:middle;display:inline;fill-rule:evenodd;stroke-width:0.55;paint-order:markers stroke fill"
         d="m 31.439372,56.550711 q -0.01206,0.06752 -0.03376,0.113343 -0.01929,0.04582 -0.05305,0.07476 -0.03376,0.02653 -0.08441,0.03858 -0.05064,0.01206 -0.12299,0.01206 -0.06994,0 -0.115755,-0.01206 -0.04582,-0.01206 -0.06752,-0.03858 -0.0217,-0.02894 -0.02412,-0.07476 -0.0024,-0.04582 0.0096,-0.113343 0.01447,-0.06752 0.03617,-0.110932 0.0217,-0.04582 0.05305,-0.07476 0.03376,-0.03135 0.08441,-0.041 0.05064,-0.01206 0.12299,-0.01206 0.06994,0 0.113344,0.01206 0.04582,0.0096 0.06752,0.041 0.02411,0.02894 0.02653,0.07476 0.0024,0.04341 -0.01206,0.110932 z"
         id="path11" />
      <path
         style="font-style:italic;font-size:4.93889px;line-height:0;font-family:Calibri;-inkscape-font-specification:'Calibri Italic';text-align:center;text-anchor:middle;display:inline;fill-rule:evenodd;stroke-width:0.55;paint-order:markers stroke fill"
         d="m 29.68134,59.451826 q -0.0072,0.041 -0.05064,0.05788 -0.04341,0.01688 -0.144694,0.01688 -0.05064,0 -0.08199,-0.0048 -0.03135,-0.0048 -0.05064,-0.01206 -0.01929,-0.0096 -0.02653,-0.0217 -0.0048,-0.01447 0,-0.03617 l 0.07717,-0.405143 q -0.03135,0.07958 -0.113344,0.171221 -0.08199,0.08923 -0.195337,0.166398 -0.110932,0.07476 -0.248391,0.125402 -0.13746,0.04823 -0.279742,0.04823 -0.142283,0 -0.248392,-0.03858 -0.103697,-0.03617 -0.176044,-0.09887 -0.06994,-0.0627 -0.115755,-0.144694 -0.04341,-0.0844 -0.06994,-0.171221 -0.02412,-0.08923 -0.03376,-0.178456 -0.0072,-0.08923 -0.0072,-0.163987 0,-0.139871 0.02653,-0.313504 0.02653,-0.173633 0.08441,-0.347265 0.05788,-0.176045 0.147105,-0.342443 0.09164,-0.16881 0.219453,-0.296623 0.127813,-0.130224 0.294211,-0.209806 0.16881,-0.07958 0.381028,-0.07958 0.103697,0 0.195337,0.02412 0.09164,0.0217 0.166398,0.0627 0.07476,0.03858 0.137459,0.09405 0.0627,0.05547 0.113344,0.115755 l 0.24598,-1.229899 q 0.0024,-0.01688 0.01447,-0.03135 0.01206,-0.01688 0.03617,-0.02411 0.02412,-0.0096 0.0627,-0.01447 0.03859,-0.0072 0.09888,-0.0072 0.05788,0 0.09405,0.0072 0.03859,0.0048 0.06029,0.01447 0.0217,0.0072 0.02653,0.02411 0.0072,0.01447 0.0024,0.03135 z m -0.07717,-1.596457 q -0.113344,-0.166398 -0.24598,-0.253215 -0.130225,-0.08682 -0.294211,-0.08682 -0.127813,0 -0.231511,0.06029 -0.101286,0.05788 -0.183279,0.156752 -0.08199,0.09887 -0.142282,0.226687 -0.05788,0.127813 -0.09646,0.265273 -0.03858,0.135047 -0.05788,0.267683 -0.01929,0.132637 -0.01929,0.243569 0,0.233922 0.07958,0.359323 0.07958,0.12299 0.255627,0.12299 0.132636,0 0.265272,-0.07235 0.135048,-0.07235 0.250803,-0.20016 0.115755,-0.127813 0.204983,-0.303857 0.08923,-0.176045 0.132636,-0.385851 z"
         id="path10" />
      <path
         style="font-style:italic;font-size:4.93889px;line-height:0;font-family:Calibri;-inkscape-font-specification:'Calibri Italic';text-align:center;text-anchor:middle;display:inline;fill-rule:evenodd;stroke-width:0.55;paint-order:markers stroke fill"
         d="m 24.879909,59.36501 q 0.0072,0.05305 0.0024,0.08682 -0.0024,0.03135 -0.02653,0.04823 -0.0217,0.01688 -0.06993,0.0217 -0.04823,0.0048 -0.130225,0.0048 -0.05305,0 -0.09164,-0.0048 -0.03859,-0.0024 -0.06029,-0.0096 -0.01929,-0.0096 -0.02894,-0.02412 -0.0096,-0.01447 -0.01206,-0.03617 l -0.115755,-0.759643 h -1.299835 l -0.407555,0.752409 q -0.01206,0.02412 -0.02894,0.041 -0.01447,0.01447 -0.04341,0.02412 -0.02653,0.0096 -0.07235,0.01206 -0.04341,0.0048 -0.108521,0.0048 -0.07235,0 -0.115755,-0.0072 -0.04341,-0.0048 -0.06029,-0.0217 -0.01688,-0.01688 -0.0096,-0.04823 0.0072,-0.03376 0.03376,-0.08682 l 1.625396,-2.898704 q 0.01688,-0.02653 0.03617,-0.04341 0.01929,-0.01688 0.05064,-0.02653 0.03135,-0.0096 0.07958,-0.01206 0.04823,-0.0048 0.118167,-0.0048 0.07958,0 0.127813,0.0048 0.05064,0.0024 0.07958,0.01206 0.03135,0.0096 0.04341,0.02894 0.01206,0.01688 0.01688,0.04341 z m -0.812698,-2.558673 h -0.0024 l -0.844048,1.555461 h 1.080382 z"
         id="text1-1-9" />
    </g>
    <g
       id="g23"
       inkscape:label="and"
       transform="translate(0,1.0583333)">
      <path
         style="font-style:italic;font-size:4.58611px;line-height:0;font-family:Calibri;-inkscape-font-specification:'Calibri Italic';text-align:center;text-anchor:middle;fill-rule:evenodd;stroke-width:0.55;paint-order:markers stroke fill"
         d="m 9.5556986,94.451949 q 0.00672,0.04927 0.00224,0.08061 -0.00224,0.02911 -0.024632,0.04479 -0.020154,0.01568 -0.06494,0.02015 -0.044786,0.0045 -0.1209228,0.0045 -0.049265,0 -0.085094,-0.0045 -0.035829,-0.0022 -0.055983,-0.009 -0.017914,-0.009 -0.026872,-0.02239 -0.00896,-0.01344 -0.011197,-0.03359 l -0.107487,-0.705338 h -1.206989 l -0.3784436,0.698665 q -0.011197,0.02239 -0.026872,0.03807 -0.013436,0.01344 -0.040308,0.02239 -0.024632,0.009 -0.067179,0.0112 -0.040308,0.0045 -0.100769,0.0045 -0.067179,0 -0.107487,-0.0067 -0.040308,-0.0045 -0.055983,-0.02015 -0.015675,-0.01568 -0.00896,-0.04479 0.00672,-0.03135 0.03135,-0.08062 l 1.509296,-2.691652 q 0.015675,-0.02463 0.03359,-0.04031 0.017914,-0.01568 0.047026,-0.02463 0.029111,-0.009 0.073897,-0.0112 0.044786,-0.0045 0.1097263,-0.0045 0.073897,0 0.1186835,0.0045 0.047026,0.0022 0.073897,0.0112 0.029111,0.009 0.040308,0.02687 0.011197,0.01568 0.015675,0.04031 z m -0.754648,-2.37591 h -0.00224 l -0.783759,1.444356 h 1.0032116 z"
         id="text20" />
      <path
         style="font-style:italic;font-size:4.58611px;line-height:0;font-family:Calibri;-inkscape-font-specification:'Calibri Italic';text-align:center;text-anchor:middle;fill-rule:evenodd;stroke-width:0.55;paint-order:markers stroke fill"
         d="m 14.014168,94.532564 q -0.0067,0.03807 -0.04702,0.05374 -0.04031,0.01568 -0.134359,0.01568 -0.04703,0 -0.07614,-0.0045 -0.02911,-0.0045 -0.04702,-0.0112 -0.01792,-0.009 -0.02463,-0.02015 -0.0045,-0.01344 0,-0.03359 l 0.07166,-0.376204 q -0.02911,0.0739 -0.105247,0.158991 -0.07614,0.08285 -0.181385,0.154512 -0.103008,0.06942 -0.230649,0.116444 -0.12764,0.04479 -0.25976,0.04479 -0.132119,0 -0.230649,-0.03583 -0.09629,-0.03359 -0.16347,-0.09181 -0.06494,-0.05822 -0.107487,-0.134359 -0.04031,-0.07838 -0.06494,-0.158991 -0.02239,-0.08285 -0.03135,-0.165709 -0.0067,-0.08285 -0.0067,-0.152273 0,-0.12988 0.02463,-0.291111 0.02463,-0.16123 0.07837,-0.322461 0.05374,-0.163469 0.136598,-0.317982 0.08509,-0.156752 0.203778,-0.275435 0.118683,-0.120923 0.273196,-0.19482 0.156752,-0.0739 0.353811,-0.0739 0.09629,0 0.181384,0.02239 0.08509,0.02015 0.154513,0.05822 0.06942,0.03583 0.127641,0.08733 0.05822,0.0515 0.105247,0.107487 l 0.22841,-1.142049 q 0.0022,-0.01568 0.01344,-0.02911 0.0112,-0.01568 0.03359,-0.02239 0.02239,-0.009 0.05822,-0.01344 0.03583,-0.0067 0.09181,-0.0067 0.05374,0 0.08733,0.0067 0.03583,0.0045 0.05598,0.01344 0.02015,0.0067 0.02463,0.02239 0.0067,0.01344 0.0022,0.02911 z M 13.94251,93.05014 q -0.105247,-0.154513 -0.22841,-0.235128 -0.120922,-0.08061 -0.273196,-0.08061 -0.118683,0 -0.214973,0.05598 -0.09405,0.05374 -0.170188,0.145555 -0.07614,0.09181 -0.13212,0.210495 -0.05374,0.118684 -0.08957,0.246324 -0.03583,0.125402 -0.05374,0.248564 -0.01792,0.123162 -0.01792,0.22617 0,0.217214 0.0739,0.333658 0.0739,0.114205 0.237367,0.114205 0.123162,0 0.246325,-0.06718 0.125401,-0.06718 0.232888,-0.185862 0.107487,-0.118684 0.190341,-0.282154 0.08286,-0.163469 0.123163,-0.35829 z"
         id="path23" />
      <path
         style="font-style:italic;font-size:4.58611px;line-height:0;font-family:Calibri;-inkscape-font-specification:'Calibri Italic';text-align:center;text-anchor:middle;fill-rule:evenodd;stroke-width:0.55;paint-order:markers stroke fill"
         d="m 11.949523,92.962807 q 0,0.07838 -0.009,0.154512 -0.009,0.07614 -0.02463,0.156752 l -0.253042,1.258493 q -0.0045,0.01791 -0.01567,0.03135 -0.009,0.0112 -0.03359,0.02015 -0.02239,0.009 -0.05822,0.01344 -0.03583,0.0045 -0.09181,0.0045 -0.05374,0 -0.08957,-0.0045 -0.03359,-0.0045 -0.05374,-0.01344 -0.01791,-0.009 -0.02463,-0.02015 -0.0045,-0.01344 -0.0022,-0.03135 l 0.248564,-1.245057 q 0.01567,-0.06942 0.02015,-0.134359 0.0067,-0.06494 0.0067,-0.114205 0,-0.136598 -0.05822,-0.219452 -0.05822,-0.08509 -0.19482,-0.08509 -0.118684,0 -0.244085,0.06942 -0.123163,0.06718 -0.230649,0.188103 -0.105248,0.118683 -0.190342,0.284392 -0.08286,0.16347 -0.120923,0.356051 l -0.179145,0.900203 q -0.0045,0.01791 -0.01567,0.03135 -0.0112,0.0112 -0.03359,0.02015 -0.02239,0.009 -0.06046,0.01344 -0.03583,0.0045 -0.08957,0.0045 -0.05598,0 -0.09181,-0.0045 -0.03359,-0.0045 -0.05374,-0.01344 -0.017914,-0.009 -0.024632,-0.02015 -0.00448,-0.01344 0,-0.03135 l 0.405315,-2.01762 q 0.0022,-0.01568 0.0112,-0.02911 0.0112,-0.01344 0.03135,-0.02239 0.02239,-0.009 0.05374,-0.0112 0.03359,-0.0045 0.07838,-0.0045 0.04702,0 0.07614,0.0045 0.03135,0.0022 0.04703,0.0112 0.01791,0.009 0.02239,0.02239 0.0045,0.01344 0.0022,0.02911 l -0.07614,0.385162 q 0.03359,-0.07614 0.109726,-0.161231 0.07614,-0.08509 0.181384,-0.156751 0.105248,-0.07166 0.230649,-0.118684 0.127641,-0.04703 0.264239,-0.04703 0.150034,0 0.250803,0.04703 0.100769,0.04479 0.16347,0.120923 0.0627,0.0739 0.08957,0.172427 0.02687,0.09853 0.02687,0.206017 z"
         id="path22" />
    </g>
    <g
       id="g24"
       inkscape:label="or"
       transform="translate(0,1.0583333)">
      <path
         style="font-style:italic;font-size:4.58611px;line-height:0;font-family:Calibri;-inkscape-font-specification:'Calibri Italic';text-align:center;text-anchor:middle;fill-rule:evenodd;stroke-width:0.55;paint-order:markers stroke fill"
         d="m 31.066281,92.662739 q 0,0.172427 -0.03135,0.385161 -0.03135,0.212735 -0.105247,0.432188 -0.0739,0.219452 -0.19706,0.427708 -0.120922,0.206017 -0.300067,0.367247 -0.179145,0.158991 -0.42547,0.257521 -0.246324,0.09853 -0.564306,0.09853 -0.255282,0 -0.447862,-0.0627 -0.192581,-0.06494 -0.322461,-0.190342 -0.127641,-0.12764 -0.192581,-0.313503 -0.06494,-0.185863 -0.06494,-0.429948 0,-0.192581 0.03359,-0.414273 0.03359,-0.221691 0.109726,-0.441144 0.07838,-0.221692 0.201538,-0.425469 0.125401,-0.203778 0.304546,-0.360529 0.181385,-0.158991 0.42323,-0.250803 0.241846,-0.09405 0.555349,-0.09405 0.253043,0 0.443384,0.06718 0.192581,0.06494 0.320222,0.19482 0.12988,0.127641 0.19482,0.317982 0.06494,0.188103 0.06494,0.434427 z m -0.412034,0.02687 q 0,-0.156752 -0.03583,-0.286632 -0.03583,-0.13212 -0.114205,-0.226171 -0.07838,-0.09405 -0.208256,-0.145555 -0.12988,-0.05374 -0.313504,-0.05374 -0.232888,0 -0.409794,0.08733 -0.174666,0.08509 -0.304546,0.223931 -0.127641,0.138837 -0.212735,0.315743 -0.08285,0.174666 -0.134359,0.353811 -0.04926,0.179145 -0.07166,0.347093 -0.02015,0.167949 -0.02015,0.291111 0,0.158991 0.03359,0.288871 0.03583,0.127641 0.116444,0.219452 0.08062,0.09181 0.208256,0.143316 0.12988,0.04927 0.315743,0.04927 0.230649,0 0.405316,-0.08285 0.174666,-0.08509 0.302307,-0.221692 0.127641,-0.136598 0.212734,-0.309025 0.08509,-0.174666 0.136598,-0.351572 0.0515,-0.179145 0.07166,-0.347093 0.02239,-0.167949 0.02239,-0.295589 z"
         id="text21" />
      <path
         style="font-style:italic;font-size:4.58611px;line-height:0;font-family:Calibri;-inkscape-font-specification:'Calibri Italic';text-align:center;text-anchor:middle;fill-rule:evenodd;stroke-width:0.55;paint-order:markers stroke fill"
         d="m 32.848773,92.519421 q 0,0.009 -0.0045,0.03583 -0.0022,0.02463 -0.0067,0.05822 -0.0045,0.03359 -0.01344,0.06942 -0.009,0.03583 -0.02239,0.06718 -0.01344,0.02911 -0.02911,0.04926 -0.01344,0.02015 -0.03135,0.02015 -0.01792,0 -0.04031,-0.0067 -0.02015,-0.009 -0.04702,-0.02015 -0.02463,-0.0112 -0.05822,-0.01792 -0.03359,-0.009 -0.07838,-0.009 -0.07614,0 -0.176906,0.06718 -0.09853,0.06494 -0.19482,0.181385 -0.09629,0.116444 -0.176906,0.275435 -0.07838,0.158991 -0.116444,0.344854 l -0.176905,0.897964 q -0.0045,0.01791 -0.01568,0.03135 -0.0112,0.0112 -0.03359,0.02015 -0.02239,0.009 -0.06046,0.01344 -0.03583,0.0045 -0.08957,0.0045 -0.05598,0 -0.09181,-0.0045 -0.03359,-0.0045 -0.05374,-0.01344 -0.01791,-0.009 -0.02463,-0.02015 -0.0045,-0.01344 0,-0.03135 l 0.400837,-2.01762 q 0.0022,-0.01568 0.01344,-0.02911 0.0112,-0.01344 0.03359,-0.02239 0.02239,-0.009 0.05374,-0.0112 0.03359,-0.0045 0.07838,-0.0045 0.04703,0 0.07614,0.0045 0.03135,0.0022 0.04703,0.0112 0.01792,0.009 0.02239,0.02239 0.0045,0.01344 0.0022,0.02911 l -0.0739,0.367247 q 0.0515,-0.09181 0.120923,-0.176905 0.07166,-0.08509 0.154513,-0.147795 0.08285,-0.06494 0.172427,-0.103008 0.09181,-0.03807 0.179144,-0.03807 0.03807,0 0.07614,0.0067 0.04031,0.0045 0.0739,0.01344 0.03359,0.0067 0.05822,0.01792 0.02687,0.009 0.04031,0.02239 0.01344,0.01344 0.01344,0.04255 z"
         id="path24" />
    </g>
    <g
       id="g26"
       inkscape:label="xor"
       transform="translate(0,1.0583333)">
      <path
         style="font-style:italic;font-size:4.58611px;line-height:0;font-family:Calibri;-inkscape-font-specification:'Calibri Italic';text-align:center;text-anchor:middle;fill-rule:evenodd;stroke-width:0.55;paint-order:markers stroke fill"
         d="m 48.440864,93.108362 0.541913,1.339108 q 0.01568,0.04927 0.01568,0.08062 0.0022,0.02911 -0.02015,0.04703 -0.02015,0.01567 -0.06718,0.02015 -0.04479,0.0067 -0.123162,0.0067 -0.06494,0 -0.103008,-0.0045 -0.03807,-0.0022 -0.06046,-0.0112 -0.02015,-0.009 -0.02911,-0.02015 -0.009,-0.01344 -0.01568,-0.03359 l -0.438905,-1.162203 -0.87781,1.162203 q -0.01567,0.02015 -0.03359,0.03359 -0.01568,0.01344 -0.04255,0.02239 -0.02687,0.0067 -0.06942,0.009 -0.04255,0.0045 -0.107487,0.0045 -0.0739,0 -0.118684,-0.0067 -0.04703,-0.0045 -0.0627,-0.02015 -0.01792,-0.01792 -0.0067,-0.04703 0.0112,-0.02911 0.04703,-0.07838 l 1.072631,-1.352544 -0.494888,-1.26745 q -0.01792,-0.04926 -0.01792,-0.07838 0.0022,-0.02911 0.02463,-0.04479 0.02239,-0.01792 0.06942,-0.02239 0.04703,-0.0067 0.123162,-0.0067 0.06046,0 0.09629,0.0045 0.03807,0.0022 0.05822,0.01344 0.02239,0.0112 0.03359,0.02911 0.0112,0.01568 0.02015,0.04255 l 0.394119,1.059195 0.817349,-1.079349 q 0.01568,-0.01791 0.03135,-0.03135 0.01568,-0.01568 0.04255,-0.02239 0.02687,-0.009 0.06718,-0.0112 0.04031,-0.0045 0.105247,-0.0045 0.0739,0 0.118684,0.0067 0.04703,0.0045 0.0627,0.02239 0.01791,0.01568 0.0067,0.04479 -0.009,0.02911 -0.04255,0.07838 z"
         id="text22" />
      <path
         style="font-style:italic;font-size:4.58611px;line-height:0;font-family:Calibri;-inkscape-font-specification:'Calibri Italic';text-align:center;text-anchor:middle;fill-rule:evenodd;stroke-width:0.55;paint-order:markers stroke fill"
         d="m 53.250905,92.519423 q 0,0.009 -0.0045,0.03583 -0.0022,0.02463 -0.0067,0.05822 -0.0045,0.03359 -0.01344,0.06942 -0.009,0.03583 -0.02239,0.06718 -0.01344,0.02911 -0.02911,0.04926 -0.01344,0.02015 -0.03135,0.02015 -0.01791,0 -0.04031,-0.0067 -0.02015,-0.009 -0.04703,-0.02015 -0.02463,-0.0112 -0.05822,-0.01792 -0.03359,-0.009 -0.07838,-0.009 -0.07614,0 -0.176905,0.06718 -0.09853,0.06494 -0.19482,0.181385 -0.09629,0.116444 -0.176906,0.275435 -0.07838,0.158991 -0.116444,0.344854 l -0.176906,0.897964 q -0.0045,0.01791 -0.01568,0.03135 -0.0112,0.0112 -0.03359,0.02015 -0.02239,0.009 -0.06046,0.01344 -0.03583,0.0045 -0.08957,0.0045 -0.05598,0 -0.09181,-0.0045 -0.03359,-0.0045 -0.05374,-0.01344 -0.01791,-0.009 -0.02463,-0.02015 -0.0045,-0.01344 0,-0.03135 l 0.400837,-2.01762 q 0.0022,-0.01568 0.01344,-0.02911 0.0112,-0.01344 0.03359,-0.02239 0.02239,-0.009 0.05374,-0.0112 0.03359,-0.0045 0.07838,-0.0045 0.04703,0 0.07614,0.0045 0.03135,0.0022 0.04703,0.0112 0.01791,0.009 0.02239,0.02239 0.0045,0.01344 0.0022,0.02911 l -0.0739,0.367247 q 0.0515,-0.09181 0.120923,-0.176905 0.07166,-0.08509 0.154512,-0.147795 0.08285,-0.06494 0.172427,-0.103008 0.09181,-0.03807 0.179145,-0.03807 0.03807,0 0.07614,0.0067 0.04031,0.0045 0.0739,0.01344 0.03359,0.0067 0.05822,0.01792 0.02687,0.009 0.04031,0.02239 0.01344,0.01344 0.01344,0.04255 z"
         id="path26" />
      <path
         style="font-style:italic;font-size:4.58611px;line-height:0;font-family:Calibri;-inkscape-font-specification:'Calibri Italic';text-align:center;text-anchor:middle;fill-rule:evenodd;stroke-width:0.55;paint-order:markers stroke fill"
         d="m 51.396755,93.184502 q 0,0.165709 -0.03135,0.338136 -0.03135,0.172427 -0.09629,0.333658 -0.0627,0.158991 -0.161231,0.300068 -0.09853,0.141076 -0.232888,0.246324 -0.13212,0.105248 -0.302307,0.167948 -0.167949,0.06046 -0.376205,0.06046 -0.214974,0 -0.369486,-0.0515 -0.152273,-0.0515 -0.250803,-0.150034 -0.09853,-0.09853 -0.145555,-0.241846 -0.04703,-0.143316 -0.04703,-0.3247 0,-0.165709 0.02911,-0.338136 0.03135,-0.172427 0.09629,-0.331418 0.06494,-0.158991 0.16123,-0.300068 0.09853,-0.143316 0.230649,-0.248564 0.134359,-0.105247 0.302307,-0.165709 0.170188,-0.0627 0.378444,-0.0627 0.214974,0 0.367247,0.05374 0.154513,0.0515 0.253042,0.150034 0.100769,0.09853 0.147795,0.241846 0.04702,0.143315 0.04702,0.32246 z m -0.38964,0.02239 q 0,-0.111966 -0.02463,-0.201539 -0.02239,-0.08957 -0.07838,-0.150033 -0.05374,-0.0627 -0.143316,-0.09629 -0.08733,-0.03359 -0.212735,-0.03359 -0.134358,0 -0.244085,0.04926 -0.109726,0.04703 -0.197059,0.12988 -0.08509,0.08062 -0.150034,0.190342 -0.0627,0.109726 -0.105248,0.235128 -0.04031,0.123162 -0.06046,0.255281 -0.02015,0.12988 -0.02015,0.255282 0,0.111965 0.02463,0.201538 0.02463,0.08957 0.07838,0.152273 0.05598,0.0627 0.143316,0.09629 0.08733,0.03359 0.212735,0.03359 0.136598,0 0.244085,-0.04703 0.109726,-0.04926 0.19482,-0.132119 0.08733,-0.08285 0.150034,-0.192581 0.06494,-0.109726 0.105248,-0.235127 0.04255,-0.125402 0.0627,-0.255282 0.02015,-0.12988 0.02015,-0.255281 z"
         id="path25" />
    </g>
    <g
       id="g20"
       inkscape:label="nand">
      <path
         style="font-style:italic;font-size:4.5861px;line-height:0;font-family:Calibri;-inkscape-font-specification:'Calibri Italic';text-align:center;text-anchor:middle;fill-rule:evenodd;stroke-width:0.363;paint-order:markers stroke fill"
         d="m 8.2678866,112.89603 q -0.00672,0.0448 -0.026872,0.0761 -0.020154,0.0313 -0.047025,0.0515 -0.024632,0.0202 -0.053743,0.0291 -0.029111,0.009 -0.058222,0.009 h -0.145555 q -0.058222,0 -0.09853,-0.0134 -0.040307,-0.0134 -0.071658,-0.0448 -0.029111,-0.0336 -0.053743,-0.0851 -0.022393,-0.0537 -0.049265,-0.13212 l -0.5441515,-1.54513 q -0.055983,-0.1657 -0.1119654,-0.32917 -0.053743,-0.16571 -0.1052474,-0.33142 h -0.00448 q -0.029111,0.18362 -0.062701,0.36501 -0.03359,0.18138 -0.069419,0.36276 l -0.335896,1.68844 q -0.00448,0.0179 -0.017914,0.0314 -0.011197,0.0134 -0.035829,0.0224 -0.022393,0.007 -0.060461,0.0112 -0.035829,0.007 -0.087333,0.007 -0.051504,0 -0.087333,-0.007 -0.03359,-0.004 -0.051504,-0.0112 -0.017914,-0.009 -0.024632,-0.0224 -0.00448,-0.0134 0,-0.0314 l 0.532955,-2.67373 q 0.017914,-0.0896 0.073897,-0.12764 0.058222,-0.0381 0.116444,-0.0381 h 0.1769052 q 0.053743,0 0.094051,0.0112 0.040307,0.0112 0.069419,0.0403 0.029111,0.0291 0.051504,0.0761 0.022393,0.0448 0.049265,0.11644 l 0.5486301,1.56528 q 0.051504,0.14556 0.1007688,0.29111 0.051504,0.14555 0.1007688,0.29335 h 0.00448 q 0.03135,-0.18362 0.067179,-0.38068 0.038068,-0.19706 0.073897,-0.38069 l 0.3157422,-1.56975 q 0.00448,-0.0179 0.015675,-0.0291 0.011196,-0.0134 0.03359,-0.0224 0.022393,-0.009 0.055983,-0.0134 0.035829,-0.004 0.089572,-0.004 0.051504,0 0.085094,0.004 0.035829,0.004 0.053743,0.0134 0.020154,0.009 0.026872,0.0224 0.00672,0.0112 0.00448,0.0291 z"
         id="text3" />
      <path
         style="font-style:italic;font-size:4.5861px;line-height:0;font-family:Calibri;-inkscape-font-specification:'Calibri Italic';text-align:center;text-anchor:middle;fill-rule:evenodd;stroke-width:0.363;paint-order:markers stroke fill"
         d="m 15.368726,112.99905 q -0.0067,0.0381 -0.04703,0.0537 -0.04031,0.0157 -0.134358,0.0157 -0.04703,0 -0.07614,-0.004 -0.02911,-0.004 -0.04702,-0.0112 -0.01792,-0.009 -0.02463,-0.0202 -0.0045,-0.0134 0,-0.0336 l 0.07166,-0.3762 q -0.02911,0.0739 -0.105247,0.15899 -0.07614,0.0829 -0.181384,0.15451 -0.103008,0.0694 -0.230649,0.11644 -0.12764,0.0448 -0.259759,0.0448 -0.132119,0 -0.230649,-0.0358 -0.09629,-0.0336 -0.163469,-0.0918 -0.06494,-0.0582 -0.107487,-0.13436 -0.04031,-0.0784 -0.06494,-0.15899 -0.02239,-0.0829 -0.03135,-0.16571 -0.0067,-0.0828 -0.0067,-0.15227 0,-0.12988 0.02463,-0.29111 0.02463,-0.16123 0.07838,-0.32246 0.05374,-0.16347 0.136598,-0.31798 0.08509,-0.15675 0.203777,-0.27544 0.118683,-0.12092 0.273195,-0.19482 0.156752,-0.0739 0.35381,-0.0739 0.09629,0 0.181384,0.0224 0.08509,0.0202 0.154512,0.0582 0.06942,0.0358 0.127641,0.0873 0.05822,0.0515 0.105247,0.10749 l 0.22841,-1.14205 q 0.0022,-0.0157 0.01344,-0.0291 0.0112,-0.0157 0.03359,-0.0224 0.02239,-0.009 0.05822,-0.0134 0.03583,-0.007 0.09181,-0.007 0.05374,0 0.08733,0.007 0.03583,0.004 0.05598,0.0134 0.02015,0.007 0.02463,0.0224 0.0067,0.0134 0.0022,0.0291 z m -0.07166,-1.48242 q -0.105248,-0.15451 -0.22841,-0.23513 -0.120922,-0.0806 -0.273195,-0.0806 -0.118683,0 -0.214974,0.056 -0.09405,0.0537 -0.170187,0.14555 -0.07614,0.0918 -0.132119,0.2105 -0.05374,0.11868 -0.08957,0.24632 -0.03583,0.1254 -0.05374,0.24857 -0.01791,0.12316 -0.01791,0.22617 0,0.21721 0.0739,0.33365 0.0739,0.11421 0.237367,0.11421 0.123161,0 0.246323,-0.0672 0.125401,-0.0672 0.232888,-0.18586 0.107487,-0.11869 0.190341,-0.28216 0.08285,-0.16347 0.123162,-0.35829 z"
         id="path20" />
      <path
         style="font-style:italic;font-size:4.5861px;line-height:0;font-family:Calibri;-inkscape-font-specification:'Calibri Italic';text-align:center;text-anchor:middle;fill-rule:evenodd;stroke-width:0.363;paint-order:markers stroke fill"
         d="m 13.304086,111.4293 q 0,0.0784 -0.009,0.15451 -0.009,0.0761 -0.02463,0.15675 l -0.253041,1.25849 q -0.0045,0.0179 -0.01568,0.0314 -0.009,0.0112 -0.03359,0.0202 -0.02239,0.009 -0.05822,0.0134 -0.03583,0.004 -0.09181,0.004 -0.05374,0 -0.08957,-0.004 -0.03359,-0.004 -0.05374,-0.0134 -0.01791,-0.009 -0.02463,-0.0202 -0.0045,-0.0134 -0.0022,-0.0314 l 0.248563,-1.24505 q 0.01567,-0.0694 0.02015,-0.13436 0.0067,-0.0649 0.0067,-0.11421 0,-0.13659 -0.05822,-0.21945 -0.05822,-0.0851 -0.19482,-0.0851 -0.118683,0 -0.244084,0.0694 -0.123162,0.0672 -0.230649,0.1881 -0.105247,0.11868 -0.190341,0.28439 -0.08285,0.16347 -0.120923,0.35605 l -0.179144,0.9002 q -0.0045,0.0179 -0.01567,0.0314 -0.0112,0.0112 -0.03359,0.0202 -0.02239,0.009 -0.06046,0.0134 -0.03583,0.004 -0.08957,0.004 -0.05598,0 -0.09181,-0.004 -0.03359,-0.004 -0.05374,-0.0134 -0.01792,-0.009 -0.02463,-0.0202 -0.0045,-0.0134 0,-0.0314 l 0.405315,-2.01761 q 0.0022,-0.0157 0.0112,-0.0291 0.0112,-0.0134 0.03135,-0.0224 0.02239,-0.009 0.05374,-0.0112 0.03359,-0.004 0.07838,-0.004 0.04702,0 0.07614,0.004 0.03135,0.002 0.04702,0.0112 0.01792,0.009 0.02239,0.0224 0.0045,0.0134 0.0022,0.0291 l -0.07614,0.38516 q 0.03359,-0.0761 0.109726,-0.16123 0.07614,-0.0851 0.181384,-0.15676 0.105248,-0.0716 0.230649,-0.11868 0.12764,-0.047 0.264238,-0.047 0.150034,0 0.250802,0.047 0.100769,0.0448 0.16347,0.12092 0.0627,0.0739 0.08957,0.17243 0.02687,0.0985 0.02687,0.20602 z"
         id="path8" />
      <path
         style="font-style:italic;font-size:4.5861px;line-height:0;font-family:Calibri;-inkscape-font-specification:'Calibri Italic';text-align:center;text-anchor:middle;fill-rule:evenodd;stroke-width:0.363;paint-order:markers stroke fill"
         d="m 10.650509,112.99904 q -0.009,0.0381 -0.04927,0.0537 -0.04031,0.0157 -0.134358,0.0157 -0.04479,0 -0.0739,-0.004 -0.02911,-0.004 -0.04703,-0.0112 -0.01791,-0.009 -0.02463,-0.0202 -0.0067,-0.0134 0,-0.0336 l 0.0739,-0.38068 q -0.02911,0.0717 -0.105247,0.15675 -0.07614,0.0851 -0.181384,0.15675 -0.103008,0.0717 -0.2306488,0.11868 -0.1276405,0.047 -0.2597596,0.047 -0.1791445,0 -0.2978277,-0.0627 -0.116444,-0.0627 -0.1858625,-0.16571 -0.069418,-0.10301 -0.09629,-0.23289 -0.024632,-0.12988 -0.024632,-0.26647 0,-0.12541 0.022393,-0.2844 0.024632,-0.15899 0.076136,-0.3247 0.053743,-0.1657 0.1365977,-0.32246 0.085094,-0.15675 0.203777,-0.27991 0.1186832,-0.1254 0.2754347,-0.1993 0.1567514,-0.0761 0.3560492,-0.0761 0.199299,0 0.340375,0.0806 0.143316,0.0806 0.255281,0.22169 l 0.04255,-0.20377 q 0.009,-0.0358 0.0515,-0.0515 0.04255,-0.0157 0.132119,-0.0157 0.04479,0 0.0739,0.004 0.03135,0.002 0.04927,0.0112 0.01791,0.009 0.02239,0.0224 0.0045,0.0134 0.0022,0.0291 z m -0.06942,-1.48914 q -0.105248,-0.15451 -0.22841,-0.23065 -0.120922,-0.0784 -0.273195,-0.0784 -0.1209227,0 -0.2194522,0.0582 -0.09629,0.056 -0.1724266,0.15003 -0.073897,0.094 -0.1298798,0.21498 -0.053743,0.11868 -0.089572,0.24632 -0.03359,0.12764 -0.051504,0.2508 -0.015675,0.12316 -0.015675,0.22169 0,0.0784 0.011196,0.15676 0.013436,0.0761 0.047026,0.14107 0.035829,0.0627 0.09629,0.10301 0.060461,0.0381 0.1567514,0.0381 0.1231619,0 0.2463238,-0.0672 0.1254004,-0.0694 0.2328874,-0.19034 0.107487,-0.12093 0.190341,-0.28439 0.08285,-0.16347 0.123162,-0.36053 z"
         id="path6" />
    </g>
    <g
       id="g27"
       inkscape:label="nor"
       style="display:inline">
      <path
         style="font-style:italic;font-size:4.5861px;line-height:0;font-family:Calibri;-inkscape-font-specification:'Calibri Italic';text-align:center;text-anchor:middle;fill-rule:evenodd;stroke-width:0.363;paint-order:markers stroke fill"
         d="m 32.106584,111.65098 q 0,0.16571 -0.03135,0.33813 -0.03135,0.17243 -0.09629,0.33366 -0.0627,0.15899 -0.161231,0.30007 -0.09853,0.14107 -0.232887,0.24632 -0.13212,0.10525 -0.302307,0.16795 -0.167948,0.0605 -0.376203,0.0605 -0.214974,0 -0.369486,-0.0515 -0.152273,-0.0515 -0.250802,-0.15004 -0.09853,-0.0985 -0.145555,-0.24184 -0.04703,-0.14332 -0.04703,-0.3247 0,-0.16571 0.02911,-0.33814 0.03135,-0.17242 0.09629,-0.33141 0.06494,-0.159 0.161231,-0.30007 0.09853,-0.14332 0.230648,-0.24857 0.134359,-0.10524 0.302307,-0.1657 0.170187,-0.0627 0.378442,-0.0627 0.214974,0 0.367247,0.0537 0.154512,0.0515 0.253041,0.15003 0.100769,0.0985 0.147795,0.24185 0.04702,0.14331 0.04702,0.32246 z m -0.389639,0.0224 q 0,-0.11196 -0.02463,-0.20154 -0.02239,-0.0896 -0.07838,-0.15003 -0.05374,-0.0627 -0.143316,-0.0963 -0.08733,-0.0336 -0.212734,-0.0336 -0.134359,0 -0.244085,0.0493 -0.109726,0.047 -0.197059,0.12988 -0.08509,0.0806 -0.150033,0.19035 -0.0627,0.10972 -0.105248,0.23512 -0.04031,0.12316 -0.06046,0.25528 -0.02015,0.12988 -0.02015,0.25528 0,0.11197 0.02463,0.20154 0.02463,0.0896 0.07838,0.15228 0.05598,0.0627 0.143316,0.0963 0.08733,0.0336 0.212734,0.0336 0.136598,0 0.244085,-0.047 0.109726,-0.0493 0.194819,-0.13212 0.08733,-0.0828 0.150034,-0.19258 0.06494,-0.10973 0.105247,-0.23513 0.04255,-0.1254 0.0627,-0.25528 0.02015,-0.12988 0.02015,-0.25528 z"
         id="path21" />
      <path
         style="font-style:italic;font-size:4.5861px;line-height:0;font-family:Calibri;-inkscape-font-specification:'Calibri Italic';text-align:center;text-anchor:middle;fill-rule:evenodd;stroke-width:0.363;paint-order:markers stroke fill"
         d="m 33.96073,110.98591 q 0,0.009 -0.0045,0.0358 -0.0022,0.0246 -0.0067,0.0582 -0.0045,0.0336 -0.01344,0.0694 -0.009,0.0358 -0.02239,0.0672 -0.01344,0.0291 -0.02911,0.0493 -0.01344,0.0202 -0.03135,0.0202 -0.01791,0 -0.04031,-0.007 -0.02015,-0.009 -0.04703,-0.0202 -0.02463,-0.0112 -0.05822,-0.0179 -0.03359,-0.009 -0.07837,-0.009 -0.07614,0 -0.176906,0.0672 -0.09853,0.0649 -0.194819,0.18138 -0.09629,0.11644 -0.176906,0.27544 -0.07838,0.15899 -0.116444,0.34485 l -0.176905,0.89796 q -0.0045,0.0179 -0.01567,0.0314 -0.0112,0.0112 -0.03359,0.0202 -0.02239,0.009 -0.06046,0.0134 -0.03583,0.004 -0.08957,0.004 -0.05598,0 -0.09181,-0.004 -0.03359,-0.004 -0.05374,-0.0134 -0.01791,-0.009 -0.02463,-0.0202 -0.0045,-0.0134 0,-0.0314 l 0.400836,-2.01761 q 0.0022,-0.0157 0.01344,-0.0291 0.0112,-0.0134 0.03359,-0.0224 0.02239,-0.009 0.05374,-0.0112 0.03359,-0.004 0.07838,-0.004 0.04703,0 0.07614,0.004 0.03135,0.002 0.04703,0.0112 0.01791,0.009 0.02239,0.0224 0.0045,0.0134 0.0022,0.0291 l -0.0739,0.36724 q 0.0515,-0.0918 0.120923,-0.1769 0.07166,-0.0851 0.154512,-0.1478 0.08285,-0.0649 0.172427,-0.10301 0.09181,-0.0381 0.179144,-0.0381 0.03807,0 0.07614,0.007 0.04031,0.004 0.0739,0.0134 0.03359,0.007 0.05822,0.0179 0.02687,0.009 0.04031,0.0224 0.01344,0.0134 0.01344,0.0425 z"
         id="path27" />
      <path
         style="font-style:italic;font-size:4.5861px;line-height:0;font-family:Calibri;-inkscape-font-specification:'Calibri Italic';text-align:center;text-anchor:middle;fill-rule:evenodd;stroke-width:0.363;paint-order:markers stroke fill"
         d="m 29.354476,112.89603 q -0.0067,0.0448 -0.02687,0.0761 -0.02015,0.0313 -0.04703,0.0515 -0.02463,0.0202 -0.05374,0.0291 -0.02911,0.009 -0.05822,0.009 h -0.145555 q -0.05822,0 -0.09853,-0.0134 -0.04031,-0.0134 -0.07166,-0.0448 -0.02911,-0.0336 -0.05374,-0.0851 -0.02239,-0.0537 -0.04926,-0.13212 l -0.544151,-1.54513 q -0.05598,-0.1657 -0.111966,-0.32917 -0.05374,-0.16571 -0.105247,-0.33142 h -0.0045 q -0.02911,0.18362 -0.0627,0.36501 -0.03359,0.18138 -0.06942,0.36276 l -0.335896,1.68844 q -0.0045,0.0179 -0.01791,0.0314 -0.0112,0.0134 -0.03583,0.0224 -0.02239,0.007 -0.06046,0.0112 -0.03583,0.007 -0.08733,0.007 -0.0515,0 -0.08733,-0.007 -0.03359,-0.004 -0.0515,-0.0112 -0.01791,-0.009 -0.02463,-0.0224 -0.0045,-0.0134 0,-0.0314 l 0.532955,-2.67373 q 0.01792,-0.0896 0.0739,-0.12764 0.05822,-0.0381 0.116444,-0.0381 h 0.176905 q 0.05374,0 0.09405,0.0112 0.04031,0.0112 0.06942,0.0403 0.02911,0.0291 0.0515,0.0761 0.02239,0.0448 0.04927,0.11644 l 0.54863,1.56528 q 0.0515,0.14556 0.100769,0.29111 0.0515,0.14555 0.100768,0.29335 h 0.0045 q 0.03135,-0.18362 0.06718,-0.38068 0.03807,-0.19706 0.0739,-0.38069 l 0.315743,-1.56975 q 0.0045,-0.0179 0.01567,-0.0291 0.0112,-0.0134 0.03359,-0.0224 0.02239,-0.009 0.05598,-0.0134 0.03583,-0.004 0.08957,-0.004 0.0515,0 0.08509,0.004 0.03583,0.004 0.05374,0.0134 0.02015,0.009 0.02687,0.0224 0.0067,0.0112 0.0045,0.0291 z"
         id="text4" />
    </g>
    <g
       id="g30"
       inkscape:label="xnor"
       style="display:inline">
      <path
         style="font-style:italic;font-size:4.5861px;line-height:0;font-family:Calibri;-inkscape-font-specification:'Calibri Italic';text-align:center;text-anchor:middle;fill-rule:evenodd;stroke-width:0.363;paint-order:markers stroke fill"
         d="m 52.577013,111.65098 q 0,0.16571 -0.03135,0.33813 -0.03135,0.17243 -0.09629,0.33366 -0.0627,0.15899 -0.16123,0.30007 -0.09853,0.14107 -0.232888,0.24632 -0.132119,0.10525 -0.302307,0.16795 -0.167948,0.0605 -0.376203,0.0605 -0.214974,0 -0.369486,-0.0515 -0.152273,-0.0515 -0.250802,-0.15004 -0.09853,-0.0985 -0.145555,-0.24184 -0.04703,-0.14332 -0.04703,-0.3247 0,-0.16571 0.02911,-0.33814 0.03135,-0.17242 0.09629,-0.33141 0.06494,-0.159 0.16123,-0.30007 0.09853,-0.14332 0.230648,-0.24857 0.134359,-0.10524 0.302307,-0.1657 0.170187,-0.0627 0.378443,-0.0627 0.214973,0 0.367246,0.0537 0.154512,0.0515 0.253042,0.15003 0.100768,0.0985 0.147794,0.24185 0.04702,0.14331 0.04702,0.32246 z m -0.389639,0.0224 q 0,-0.11196 -0.02463,-0.20154 -0.02239,-0.0896 -0.07838,-0.15003 -0.05374,-0.0627 -0.143316,-0.0963 -0.08733,-0.0336 -0.212734,-0.0336 -0.134358,0 -0.244084,0.0493 -0.109726,0.047 -0.197059,0.12988 -0.08509,0.0806 -0.150034,0.19035 -0.0627,0.10972 -0.105247,0.23512 -0.04031,0.12316 -0.06046,0.25528 -0.02015,0.12988 -0.02015,0.25528 0,0.11197 0.02463,0.20154 0.02463,0.0896 0.07838,0.15228 0.05598,0.0627 0.143315,0.0963 0.08733,0.0336 0.212735,0.0336 0.136597,0 0.244084,-0.047 0.109726,-0.0493 0.19482,-0.13212 0.08733,-0.0828 0.150033,-0.19258 0.06494,-0.10973 0.105248,-0.23513 0.04255,-0.1254 0.0627,-0.25528 0.02015,-0.12988 0.02015,-0.25528 z"
         id="path29" />
      <path
         style="font-style:italic;font-size:4.5861px;line-height:0;font-family:Calibri;-inkscape-font-specification:'Calibri Italic';text-align:center;text-anchor:middle;fill-rule:evenodd;stroke-width:0.363;paint-order:markers stroke fill"
         d="m 50.145126,111.42929 q 0,0.0784 -0.009,0.15451 -0.009,0.0761 -0.02463,0.15675 l -0.253042,1.25849 q -0.0045,0.0179 -0.01567,0.0314 -0.009,0.0112 -0.03359,0.0202 -0.02239,0.009 -0.05822,0.0134 -0.03583,0.004 -0.09181,0.004 -0.05374,0 -0.08957,-0.004 -0.03359,-0.004 -0.05374,-0.0134 -0.01791,-0.009 -0.02463,-0.0202 -0.0045,-0.0134 -0.0022,-0.0314 l 0.248563,-1.24505 q 0.01568,-0.0694 0.02015,-0.13436 0.0067,-0.0649 0.0067,-0.11421 0,-0.13659 -0.05822,-0.21945 -0.05822,-0.0851 -0.194819,-0.0851 -0.118684,0 -0.244085,0.0694 -0.123162,0.0672 -0.230648,0.1881 -0.105248,0.11868 -0.190342,0.28439 -0.08285,0.16347 -0.120922,0.35605 l -0.179145,0.9002 q -0.0045,0.0179 -0.01568,0.0314 -0.0112,0.0112 -0.03359,0.0202 -0.02239,0.009 -0.06046,0.0134 -0.03583,0.004 -0.08957,0.004 -0.05598,0 -0.09181,-0.004 -0.03359,-0.004 -0.05374,-0.0134 -0.01791,-0.009 -0.02463,-0.0202 -0.0045,-0.0134 0,-0.0314 l 0.405314,-2.01761 q 0.0022,-0.0157 0.0112,-0.0291 0.0112,-0.0134 0.03135,-0.0224 0.02239,-0.009 0.05374,-0.0112 0.03359,-0.004 0.07838,-0.004 0.04703,0 0.07614,0.004 0.03135,0.002 0.04703,0.0112 0.01791,0.009 0.02239,0.0224 0.0045,0.0134 0.0022,0.0291 l -0.07614,0.38516 q 0.03359,-0.0761 0.109726,-0.16123 0.07614,-0.0851 0.181384,-0.15676 0.105247,-0.0716 0.230649,-0.11868 0.12764,-0.047 0.264238,-0.047 0.150033,0 0.250802,0.047 0.100769,0.0448 0.163469,0.12092 0.0627,0.0739 0.08957,0.17243 0.02687,0.0985 0.02687,0.20602 z"
         id="path28" />
      <path
         style="font-style:italic;font-size:4.5861px;line-height:0;font-family:Calibri;-inkscape-font-specification:'Calibri Italic';text-align:center;text-anchor:middle;fill-rule:evenodd;stroke-width:0.363;paint-order:markers stroke fill"
         d="m 47.175806,111.57484 0.541912,1.33911 q 0.01568,0.0493 0.01568,0.0806 0.0022,0.0291 -0.02015,0.047 -0.02015,0.0157 -0.06718,0.0202 -0.04479,0.007 -0.123162,0.007 -0.06494,0 -0.103008,-0.004 -0.03807,-0.002 -0.06046,-0.0112 -0.02015,-0.009 -0.02911,-0.0202 -0.009,-0.0134 -0.01568,-0.0336 l -0.438904,-1.1622 -0.877809,1.1622 q -0.01567,0.0202 -0.03359,0.0336 -0.01567,0.0134 -0.04255,0.0224 -0.02687,0.007 -0.06942,0.009 -0.04255,0.004 -0.107486,0.004 -0.0739,0 -0.118684,-0.007 -0.04702,-0.004 -0.0627,-0.0202 -0.01792,-0.0179 -0.0067,-0.047 0.0112,-0.0291 0.04702,-0.0784 l 1.072628,-1.35255 -0.494886,-1.26744 q -0.01791,-0.0493 -0.01791,-0.0784 0.0022,-0.0291 0.02463,-0.0448 0.02239,-0.0179 0.06942,-0.0224 0.04703,-0.007 0.123162,-0.007 0.06046,0 0.09629,0.004 0.03807,0.002 0.05822,0.0134 0.02239,0.0112 0.03359,0.0291 0.0112,0.0157 0.02015,0.0426 l 0.394118,1.05919 0.817347,-1.07935 q 0.01567,-0.0179 0.03135,-0.0314 0.01567,-0.0157 0.04255,-0.0224 0.02687,-0.009 0.06718,-0.0112 0.04031,-0.004 0.105247,-0.004 0.0739,0 0.118683,0.007 0.04703,0.004 0.0627,0.0224 0.01791,0.0157 0.0067,0.0448 -0.009,0.0291 -0.04255,0.0784 z"
         id="text5" />
      <path
         style="font-style:italic;font-size:4.5861px;line-height:0;font-family:Calibri;-inkscape-font-specification:'Calibri Italic';text-align:center;text-anchor:middle;fill-rule:evenodd;stroke-width:0.363;paint-order:markers stroke fill"
         d="m 54.43116,110.98591 q 0,0.009 -0.0045,0.0358 -0.0022,0.0246 -0.0067,0.0582 -0.0045,0.0336 -0.01344,0.0694 -0.009,0.0358 -0.02239,0.0672 -0.01344,0.0291 -0.02911,0.0493 -0.01344,0.0202 -0.03135,0.0202 -0.01791,0 -0.04031,-0.007 -0.02015,-0.009 -0.04703,-0.0202 -0.02463,-0.0112 -0.05822,-0.0179 -0.03359,-0.009 -0.07838,-0.009 -0.07614,0 -0.176905,0.0672 -0.09853,0.0649 -0.19482,0.18138 -0.09629,0.11644 -0.176905,0.27544 -0.07838,0.15899 -0.116444,0.34485 l -0.176905,0.89796 q -0.0045,0.0179 -0.01567,0.0314 -0.0112,0.0112 -0.03359,0.0202 -0.02239,0.009 -0.06046,0.0134 -0.03583,0.004 -0.08957,0.004 -0.05598,0 -0.09181,-0.004 -0.03359,-0.004 -0.05374,-0.0134 -0.01791,-0.009 -0.02463,-0.0202 -0.0045,-0.0134 0,-0.0314 l 0.400836,-2.01761 q 0.0022,-0.0157 0.01344,-0.0291 0.0112,-0.0134 0.03359,-0.0224 0.02239,-0.009 0.05374,-0.0112 0.03359,-0.004 0.07838,-0.004 0.04702,0 0.07614,0.004 0.03135,0.002 0.04703,0.0112 0.01791,0.009 0.02239,0.0224 0.0045,0.0134 0.0022,0.0291 l -0.0739,0.36724 q 0.0515,-0.0918 0.120923,-0.1769 0.07166,-0.0851 0.154512,-0.1478 0.08285,-0.0649 0.172426,-0.10301 0.09181,-0.0381 0.179145,-0.0381 0.03807,0 0.07614,0.007 0.04031,0.004 0.0739,0.0134 0.03359,0.007 0.05822,0.0179 0.02687,0.009 0.04031,0.0224 0.01344,0.0134 0.01344,0.0425 z"
         id="path30" />
    </g>
  </g>
  <g
     inkscape:groupmode="layer"
     id="layer4"
     inkscape:label="lines"
     inkscape:highlight-color="#c821d3"
     transform="translate(0,10.141238)">
    <path
       style="fill:none;fill-opacity:1;fill-rule:evenodd;stroke:#000000;stroke-width:0.58997379;stroke-dasharray:none;stroke-opacity:1;paint-order:markers stroke fill"
       d="m 30.427083,51.404763 c 0,8.819443 0,17.638887 0,26.458333"
       id="path12"
       inkscape:path-effect="#path-effect13"
       inkscape:original-d="m 30.427083,51.404763 c 0,8.819443 0,17.638887 0,26.458333"
       transform="matrix(1,0,0,0.37857141,0.04724702,66.831592)"
       inkscape:label="vert-central-bottom" />
    <path
       style="fill:none;fill-opacity:1;fill-rule:evenodd;stroke:#000000;stroke-width:0.428174;stroke-dasharray:none;stroke-opacity:1;paint-order:markers stroke fill"
       d="m 30.427083,51.404763 c 0,8.819443 0,17.638887 0,26.458333"
       id="path2"
       inkscape:path-effect="#path-effect5"
       inkscape:original-d="m 30.427083,51.404763 c 0,8.819443 0,17.638887 0,26.458333"
       transform="matrix(1,0,0,0.97857142,0,1.1015302)"
       inkscape:label="vert-central-top" />
    <path
       style="display:inline;fill:none;fill-opacity:1;fill-rule:evenodd;stroke:#000000;stroke-width:0.4;stroke-dasharray:none;stroke-opacity:1;paint-order:markers stroke fill"
       d="m 30.427083,51.404763 c 0,6.047616 0,12.095116 3.275859,14.174026 3.275859,2.07891 9.827316,0.189067 13.10311,1.512029 3.275794,1.322962 3.275794,5.858587 3.275794,10.394299"
       id="path13"
       inkscape:path-effect="#path-effect14"
       inkscape:original-d="m 30.427083,51.404763 c 0,6.047616 0,12.095116 0,18.142855 6.551718,-1.889919 13.103175,-3.779762 19.654763,-5.669643 0,4.535805 0,9.07143 0,13.607142"
       sodipodi:nodetypes="cccc"
       inkscape:label="curve-R" />
    <path
       style="fill:none;fill-opacity:1;fill-rule:evenodd;stroke:#000000;stroke-width:0.4;stroke-dasharray:none;stroke-opacity:1;paint-order:markers stroke fill"
       d="m 30.427083,51.404763 c 0,6.047616 0,12.095116 3.275859,14.174026 3.275859,2.07891 9.827316,0.189067 13.10311,1.512029 3.275794,1.322962 3.275794,5.858587 3.275794,10.394299"
       id="path14"
       inkscape:path-effect="#path-effect16"
       inkscape:original-d="m 30.427083,51.404763 c 0,6.047616 0,12.095116 0,18.142855 6.551718,-1.889919 13.103175,-3.779762 19.654763,-5.669643 0,4.535805 0,9.07143 0,13.607142"
       sodipodi:nodetypes="cccc"
       transform="matrix(-1,0,0,1,60.812825,0.1889881)"
       inkscape:label="curve-L" />
    <path
       style="fill:none;fill-opacity:1;fill-rule:evenodd;stroke:#000000;stroke-width:0.58997379;stroke-dasharray:none;stroke-opacity:1;paint-order:markers stroke fill"
       d="m 30.427083,51.404763 c 0,8.819443 0,17.638887 0,26.458333"
       id="path5"
       inkscape:path-effect="#path-effect7"
       inkscape:original-d="m 30.427083,51.404763 c 0,8.819443 0,17.638887 0,26.458333"
       transform="matrix(1,0,0,0.37857141,-19.579173,66.831592)"
       inkscape:label="vert-L" />
    <path
       style="fill:none;fill-opacity:1;fill-rule:evenodd;stroke:#000000;stroke-width:0.58997379;stroke-dasharray:none;stroke-opacity:1;paint-order:markers stroke fill"
       d="m 30.427083,51.404763 c 0,8.819443 0,17.638887 0,26.458333"
       id="path7"
       inkscape:path-effect="#path-effect9"
       inkscape:original-d="m 30.427083,51.404763 c 0,8.819443 0,17.638887 0,26.458333"
       transform="matrix(1,0,0,0.37857141,19.720914,66.831592)"
       inkscape:label="vert-R" />
  </g>
  <g
     inkscape:groupmode="layer"
     id="layer2"
     inkscape:label="components"
     style="display:none"
     transform="translate(0,11.112501)">
    <circle
       cy="26.595589"
       cx="21.228371"
       id="circle4956-2"
       style="display:inline;vector-effect:none;fill:#00ff00;fill-opacity:1;fill-rule:evenodd;stroke:none;stroke-width:0.532278;stroke-linecap:butt;stroke-linejoin:miter;stroke-miterlimit:4;stroke-dasharray:none;stroke-dashoffset:0;stroke-opacity:1;paint-order:normal"
       inkscape:label="a-in"
       r="2.1291132"
       inkscape:highlight-color="#0af300" />
    <circle
       cy="26.693398"
       cx="39.968086"
       id="circle4956-7"
       style="display:inline;vector-effect:none;fill:#00ff00;fill-opacity:1;fill-rule:evenodd;stroke:none;stroke-width:0.532278;stroke-linecap:butt;stroke-linejoin:miter;stroke-miterlimit:4;stroke-dasharray:none;stroke-dashoffset:0;stroke-opacity:1;paint-order:normal"
       inkscape:label="b-in"
       r="2.1291132"
       inkscape:highlight-color="#0af300" />
    <circle
       cy="51.542664"
       cx="30.456713"
       id="circle4956"
       style="display:inline;vector-effect:none;fill:#00ff00;fill-opacity:1;fill-rule:evenodd;stroke:none;stroke-width:0.532278;stroke-linecap:butt;stroke-linejoin:miter;stroke-miterlimit:4;stroke-dasharray:none;stroke-dashoffset:0;stroke-opacity:1;paint-order:normal"
       inkscape:label="audio-in"
       r="2.1291132"
       inkscape:highlight-color="#0af300" />
    <circle
       cy="31.920639"
       cx="24.417719"
       id="circle4956-1"
       style="display:inline;vector-effect:none;fill:#ff00ff;fill-opacity:1;fill-rule:evenodd;stroke:none;stroke-width:0.532278;stroke-linecap:butt;stroke-linejoin:miter;stroke-miterlimit:4;stroke-dasharray:none;stroke-dashoffset:0;stroke-opacity:1;paint-order:normal"
       inkscape:label="a-led"
       r="2.1291132"
       inkscape:highlight-color="#f300df" />
    <circle
       cy="31.973309"
       cx="43.153641"
       id="circle4956-1-7"
       style="display:inline;vector-effect:none;fill:#ff00ff;fill-opacity:1;fill-rule:evenodd;stroke:none;stroke-width:0.532278;stroke-linecap:butt;stroke-linejoin:miter;stroke-miterlimit:4;stroke-dasharray:none;stroke-dashoffset:0;stroke-opacity:1;paint-order:normal"
       inkscape:label="b-led"
       r="2.1291132"
       inkscape:highlight-color="#f300df" />
    <circle
       cy="77.499985"
       cx="10.735835"
       id="circle4956-7-0"
       style="display:inline;vector-effect:none;fill:#0000ff;fill-opacity:1;fill-rule:evenodd;stroke:none;stroke-width:0.532278;stroke-linecap:butt;stroke-linejoin:miter;stroke-miterlimit:4;stroke-dasharray:none;stroke-dashoffset:0;stroke-opacity:1;paint-order:normal"
       inkscape:label="and-out"
       r="2.1291132"
       inkscape:highlight-color="#0a00f3" />
    <circle
       cy="95.061111"
       cx="10.877919"
       id="circle4956-7-0-5"
       style="display:inline;vector-effect:none;fill:#0000ff;fill-opacity:1;fill-rule:evenodd;stroke:none;stroke-width:0.532278;stroke-linecap:butt;stroke-linejoin:miter;stroke-miterlimit:4;stroke-dasharray:none;stroke-dashoffset:0;stroke-opacity:1;paint-order:normal"
       inkscape:label="nand-out"
       r="2.1291132"
       inkscape:highlight-color="#0a00f3" />
    <circle
       cy="77.601509"
       cx="30.458429"
       id="circle4956-2-9"
       style="display:inline;vector-effect:none;fill:#0000ff;fill-opacity:1;fill-rule:evenodd;stroke:none;stroke-width:0.532278;stroke-linecap:butt;stroke-linejoin:miter;stroke-miterlimit:4;stroke-dasharray:none;stroke-dashoffset:0;stroke-opacity:1;paint-order:normal"
       inkscape:label="or-out"
       r="2.1291132"
       inkscape:highlight-color="#0a00f3" />
    <circle
       cy="95.054573"
       cx="30.485735"
       id="circle4956-7-5"
       style="display:inline;vector-effect:none;fill:#0000ff;fill-opacity:1;fill-rule:evenodd;stroke:none;stroke-width:0.532278;stroke-linecap:butt;stroke-linejoin:miter;stroke-miterlimit:4;stroke-dasharray:none;stroke-dashoffset:0;stroke-opacity:1;paint-order:normal"
       inkscape:label="not-out"
       r="2.1291132"
       inkscape:highlight-color="#0a00f3" />
    <circle
       cy="77.538414"
       cx="50.111855"
       id="circle4956-7-9"
       style="display:inline;vector-effect:none;fill:#0000ff;fill-opacity:1;fill-rule:evenodd;stroke:none;stroke-width:0.532278;stroke-linecap:butt;stroke-linejoin:miter;stroke-miterlimit:4;stroke-dasharray:none;stroke-dashoffset:0;stroke-opacity:1;paint-order:normal"
       inkscape:label="xor-out"
       r="2.1291132"
       inkscape:highlight-color="#0a00f3" />
    <circle
       cy="95.099541"
       cx="50.125675"
       id="circle4956-7-9-7"
       style="display:inline;vector-effect:none;fill:#0000ff;fill-opacity:1;fill-rule:evenodd;stroke:none;stroke-width:0.532278;stroke-linecap:butt;stroke-linejoin:miter;stroke-miterlimit:4;stroke-dasharray:none;stroke-dashoffset:0;stroke-opacity:1;paint-order:normal"
       inkscape:label="xnor-out"
       r="2.1291132"
       inkscape:highlight-color="#0a00f3" />
  </g>
  <g
     inkscape:groupmode="layer"
     id="layer1"
     inkscape:label="reff"
     inkscape:highlight-color="#fff300"
     style="display:none;opacity:0.305"
     transform="matrix(0.67712847,0,0,1,-0.48979775,0)">
    <rect
       style="display:inline;fill:#000000;stroke-width:1.03517"
       id="rect5-3"
       width="2.4175682"
       height="157.36882"
       x="-1.2446212"
       y="0.1378666"
       transform="matrix(0.06439137,-0.99792472,0.58130735,0.81368407,0,0)"
       inkscape:label="11-25" />
    <rect
       style="display:inline;fill:#000000;stroke-width:1.04644"
       id="rect5-3-4"
       width="2.4564061"
       height="158.26936"
       x="-119.58147"
       y="-196.83565"
       transform="matrix(-0.96331575,0.26837059,0.57936001,-0.81507176,0,0)"
       inkscape:label="7-5" />
    <rect
       style="display:inline;fill:#000000;stroke-width:0.899376"
       id="rect5-3-4-6"
       width="2.2043695"
       height="130.27638"
       x="-66.411064"
       y="-175.8347"
       transform="matrix(-0.70146343,0.71270545,-3.0901954e-4,-0.99999995,0,0)"
       inkscape:label="vert" />
    <rect
       style="display:inline;fill:#000000;stroke-width:0.706052"
       id="rect5-3-4-6-5"
       width="1.9083691"
       height="92.742416"
       x="-45.752937"
       y="-27.212669"
       transform="matrix(-0.58606369,-0.81026499,0.99999991,-4.3408344e-4,0,0)"
       inkscape:label="horiz" />
    <rect
       style="display:inline;opacity:1;fill:#000000;stroke-width:0.49657"
       id="rect5-3-4-6-5-4"
       width="1.6704575"
       height="52.407413"
       x="-84.669868"
       y="-11.980384"
       transform="matrix(-0.37834325,-0.92566537,0.9999997,-7.6817274e-4,0,0)"
       inkscape:label="horiz" />
    <ellipse
       cy="62.65313"
       cx="45.769775"
       id="circle4956-14"
       style="display:inline;vector-effect:none;fill:#00ff00;fill-opacity:1;fill-rule:evenodd;stroke:none;stroke-width:1.21525;stroke-linecap:butt;stroke-linejoin:miter;stroke-miterlimit:4;stroke-dasharray:none;stroke-dashoffset:0;stroke-opacity:1;paint-order:normal"
       inkscape:label="cable-lenght"
       rx="5.9072986"
       ry="4" />
  </g>
</svg>
